<svg width="894" height="433" viewBox="0 0 894 433" fill="none" xmlns="http://www.w3.org/2000/svg">
<path d="M1204 429.88H4C85.297 206.807 323.189 45.3096 604.003 45.3096C884.817 45.3096 1122.71 206.807 1204 429.88Z" stroke="#59221D" stroke-width="5" stroke-miterlimit="10" stroke-linecap="round"/>
<path d="M1167.47 431.522H57.278C126.789 240.781 372.249 97.3688 612.378 97.3688C852.507 97.3688 1097.95 240.781 1167.47 431.522Z" fill="#BDDCE8"/>
<path d="M1176.05 429.88H31.9467C103.577 233.313 356.556 85.5157 604.014 85.5157C851.472 85.5157 1104.42 233.313 1176.05 429.88Z" stroke="#59221D" stroke-width="5" stroke-miterlimit="10" stroke-linecap="round"/>
<path d="M676.452 29.0268V48.053" stroke="#59221D" stroke-width="5" stroke-miterlimit="10" stroke-linecap="round"/>
<path d="M530.864 48.053V29.0268" stroke="#59221D" stroke-width="5" stroke-miterlimit="10" stroke-linecap="round"/>
<path d="M700.592 7.49084H516.379V33.1504H700.592V7.49084Z" fill="#FED4C7"/>
<path d="M696.107 3H511.893V28.6595H696.107V3Z" stroke="#59221D" stroke-width="5" stroke-miterlimit="10" stroke-linecap="round"/>
<path d="M612.361 95.1763V426.858" stroke="white" stroke-width="6" stroke-miterlimit="10" stroke-linecap="round"/>
<path d="M712.863 102.639V426.858" stroke="white" stroke-width="6" stroke-miterlimit="10" stroke-linecap="round"/>
<path d="M813.369 125.883V426.858" stroke="white" stroke-width="6" stroke-miterlimit="10" stroke-linecap="round"/>
<path d="M511.882 103.457V426.558" stroke="white" stroke-width="6" stroke-miterlimit="10" stroke-linecap="round"/>
<path d="M411.375 126.707V426.558" stroke="white" stroke-width="6" stroke-miterlimit="10" stroke-linecap="round"/>
<path d="M310.874 168.009V426.558" stroke="white" stroke-width="6" stroke-miterlimit="10" stroke-linecap="round"/>
<path d="M210.367 229.801V426.558" stroke="white" stroke-width="6" stroke-miterlimit="10" stroke-linecap="round"/>
</svg>
