<svg width="413" height="953" viewBox="0 0 413 953" fill="none" xmlns="http://www.w3.org/2000/svg">
<path d="M57.6101 60.4C70.031 60.4 80.1001 50.3309 80.1001 37.91C80.1001 25.4891 70.031 15.42 57.6101 15.42C45.1892 15.42 35.1201 25.4891 35.1201 37.91C35.1201 50.3309 45.1892 60.4 57.6101 60.4Z" fill="#FED4C7"/>
<path d="M167.7 60.4C180.121 60.4 190.19 50.3309 190.19 37.91C190.19 25.4891 180.121 15.42 167.7 15.42C155.279 15.42 145.21 25.4891 145.21 37.91C145.21 50.3309 155.279 60.4 167.7 60.4Z" fill="#FED4C7"/>
<path d="M277.79 60.4C290.211 60.4 300.28 50.3309 300.28 37.91C300.28 25.4891 290.211 15.42 277.79 15.42C265.369 15.42 255.3 25.4891 255.3 37.91C255.3 50.3309 265.369 60.4 277.79 60.4Z" fill="#FED4C7"/>
<path d="M387.88 60.4C400.301 60.4 410.37 50.3309 410.37 37.91C410.37 25.4891 400.301 15.42 387.88 15.42C375.459 15.42 365.39 25.4891 365.39 37.91C365.39 50.3309 375.459 60.4 387.88 60.4Z" fill="#FED4C7"/>
<path d="M3 3H426.39" stroke="#59221D" stroke-width="5" stroke-miterlimit="10" stroke-linecap="round"/>
<path d="M3 71.49H426.39" stroke="#59221D" stroke-width="5" stroke-miterlimit="10" stroke-linecap="round"/>
<path d="M214.7 187.93V1153.68" stroke="#59221D" stroke-width="5" stroke-miterlimit="10" stroke-linecap="round"/>
<path d="M332.84 71.66L214.7 187.93L96.55 71.66" stroke="#59221D" stroke-width="5" stroke-miterlimit="10" stroke-linecap="round"/>
<path d="M47.29 59.46C59.7109 59.46 69.78 49.3909 69.78 36.97C69.78 24.5491 59.7109 14.48 47.29 14.48C34.8692 14.48 24.8 24.5491 24.8 36.97C24.8 49.3909 34.8692 59.46 47.29 59.46Z" stroke="#59221D" stroke-width="5" stroke-miterlimit="10" stroke-linecap="round"/>
<path d="M157.38 59.46C169.801 59.46 179.87 49.3909 179.87 36.97C179.87 24.5491 169.801 14.48 157.38 14.48C144.959 14.48 134.89 24.5491 134.89 36.97C134.89 49.3909 144.959 59.46 157.38 59.46Z" stroke="#59221D" stroke-width="5" stroke-miterlimit="10" stroke-linecap="round"/>
<path d="M267.47 59.46C279.891 59.46 289.96 49.3909 289.96 36.97C289.96 24.5491 279.891 14.48 267.47 14.48C255.049 14.48 244.98 24.5491 244.98 36.97C244.98 49.3909 255.049 59.46 267.47 59.46Z" stroke="#59221D" stroke-width="5" stroke-miterlimit="10" stroke-linecap="round"/>
<path d="M377.56 59.46C389.981 59.46 400.05 49.3909 400.05 36.97C400.05 24.5491 389.981 14.48 377.56 14.48C365.139 14.48 355.07 24.5491 355.07 36.97C355.07 49.3909 365.139 59.46 377.56 59.46Z" stroke="#59221D" stroke-width="5" stroke-miterlimit="10" stroke-linecap="round"/>
</svg>
