<svg width="1202" height="518" viewBox="0 0 1202 518" fill="none" xmlns="http://www.w3.org/2000/svg">
<path d="M89.0961 455.295C89.0961 490.168 114.882 518.441 146.688 518.441H131.452C98.4805 518.441 74.2671 490.168 74.2671 455.295C74.2671 420.423 98.4805 392.154 131.452 392.154H146.688C114.882 392.154 89.0961 420.411 89.0961 455.295Z" fill="white" stroke="#59221D" stroke-width="5" stroke-miterlimit="10"/>
<path d="M147.542 392.162H146.688" stroke="#59221D" stroke-width="5" stroke-miterlimit="10"/>
<path d="M147.542 518.441H146.688" stroke="#59221D" stroke-width="5" stroke-miterlimit="10"/>
<path d="M204.283 455.295C204.283 489.857 178.956 517.934 147.542 518.433H146.688C114.882 518.433 89.0961 490.16 89.0961 455.287C89.0961 420.415 114.882 392.146 146.688 392.146H147.542C178.956 392.661 204.283 420.734 204.283 455.295Z" fill="#A74602" stroke="#59221D" stroke-width="5" stroke-miterlimit="10"/>
<path d="M146.688 500.745C169.333 500.745 187.69 480.618 187.69 455.791C187.69 430.963 169.333 410.836 146.688 410.836C124.043 410.836 105.685 430.963 105.685 455.791C105.685 480.618 124.043 500.745 146.688 500.745Z" stroke="#59221D" stroke-width="5" stroke-miterlimit="10"/>
<path d="M1160.76 307.851V454.996H33.4404V329.344C33.4413 320.923 35.8623 312.68 40.415 305.597C44.9677 298.513 51.4601 292.889 59.1188 289.392L221.42 225.932L324.181 64.6561C328.622 57.6811 334.75 51.939 341.998 47.961C349.245 43.983 357.379 41.8975 365.646 41.8974H743.96C831.513 41.8974 866.839 69.1759 908.193 116.694L939.607 152.788C960.881 177.23 985.448 198.596 1012.6 216.273H1110.37C1123.67 216.273 1136.43 221.56 1145.84 230.97C1155.25 240.381 1160.54 253.145 1160.54 266.454V303.858C1160.69 305.184 1160.76 306.517 1160.76 307.851Z" fill="#FDFFFC" stroke="#59221D" stroke-width="5" stroke-miterlimit="10" stroke-linecap="round"/>
<path d="M1159.64 286.613V447.422H38.3062V330.693C38.3062 314.527 54.8636 299.853 70.1557 293.162L229.391 233.522H1106.55C1120.63 233.521 1134.13 239.113 1144.09 249.07C1154.04 259.026 1159.64 272.531 1159.64 286.613Z" fill="#FF9F1C"/>
<path d="M1187.95 426.955H17.2383C9.3747 426.955 3 433.331 3 441.197V441.425C3 449.29 9.3747 455.667 17.2383 455.667H1187.95C1195.82 455.667 1202.19 449.29 1202.19 441.425V441.197C1202.19 433.331 1195.82 426.955 1187.95 426.955Z" fill="white" stroke="#59221D" stroke-width="5" stroke-miterlimit="10"/>
<path d="M619.069 42.668H428.774L447.112 14.9024C449.292 11.5719 452.264 8.83467 455.762 6.93639C459.26 5.03812 463.175 4.03814 467.154 4.02612H580.689H581.316C585.187 4.14071 588.974 5.1886 592.355 7.08076C595.735 8.97292 598.608 11.6534 600.731 14.8944L619.069 42.668Z" fill="white"/>
<path d="M619.069 42.668H438.646L456.033 17.9129C458.193 14.8944 461.046 12.4386 464.351 10.7516C467.657 9.0647 471.319 8.196 475.03 8.21851H582.677H583.272C586.882 8.28785 590.426 9.19972 593.621 10.8814C596.817 12.5631 599.575 14.9682 601.677 17.9049L619.069 42.668Z" fill="#FF9F1C"/>
<path d="M620.194 41.9214H428.774L447.615 13.9721C449.883 10.5976 452.944 7.83214 456.531 5.91892C460.118 4.0057 464.119 3.00335 468.184 3H580.749H581.392C585.35 3.10067 589.227 4.14692 592.699 6.05145C596.171 7.95597 599.137 10.6635 601.35 13.9481L620.194 41.9214Z" stroke="#59221D" stroke-width="5" stroke-miterlimit="10" stroke-linecap="round"/>
<path d="M620.194 41.9214H542.632L561.469 13.9721C563.605 10.6165 566.552 7.85392 570.038 5.94003C573.524 4.02615 577.437 3.02277 581.413 3.02277C585.39 3.02277 589.303 4.02615 592.789 5.94003C596.275 7.85392 599.222 10.6165 601.358 13.9721L620.194 41.9214Z" stroke="#59221D" stroke-width="5" stroke-miterlimit="10" stroke-linecap="round"/>
<path d="M737.246 274.487H722.704V289.033H737.246V274.487Z" fill="#59221D"/>
<path d="M766.333 274.487H751.792V289.033H766.333V274.487Z" fill="#59221D"/>
<path d="M795.42 274.487H780.879V289.033H795.42V274.487Z" fill="#59221D"/>
<path d="M824.507 274.487H809.966V289.033H824.507V274.487Z" fill="#59221D"/>
<path d="M751.787 289.037H737.246V303.583H751.787V289.037Z" fill="#59221D"/>
<path d="M780.875 289.037H766.333V303.583H780.875V289.037Z" fill="#59221D"/>
<path d="M809.962 289.037H795.42V303.583H809.962V289.037Z" fill="#59221D"/>
<path d="M447.823 274.487H433.281V289.033H447.823V274.487Z" fill="#59221D"/>
<path d="M476.91 274.487H462.368V289.033H476.91V274.487Z" fill="#59221D"/>
<path d="M505.997 274.487H491.455V289.033H505.997V274.487Z" fill="#59221D"/>
<path d="M535.084 274.487H520.543V289.033H535.084V274.487Z" fill="#59221D"/>
<path d="M462.368 289.037H447.827V303.583H462.368V289.037Z" fill="#59221D"/>
<path d="M491.455 289.037H476.914V303.583H491.455V289.037Z" fill="#59221D"/>
<path d="M520.543 289.037H506.001V303.583H520.543V289.037Z" fill="#59221D"/>
<path d="M900.76 144.795V226.387H647.13V71.1284C647.13 66.3631 649.023 61.793 652.391 58.4235C655.76 55.0539 660.329 53.1609 665.093 53.1609H736.843C809.966 53.1609 847.06 74.9934 887.4 113.615C891.616 117.641 894.973 122.479 897.269 127.838C899.566 133.196 900.753 138.965 900.76 144.795Z" stroke="#59221D" stroke-width="5" stroke-miterlimit="10" stroke-linecap="round"/>
<path d="M965.681 226.387H912.991V149.251C912.99 148.669 913.168 148.102 913.499 147.624C913.83 147.146 914.299 146.781 914.843 146.577C915.387 146.373 915.981 146.34 916.544 146.482C917.108 146.625 917.614 146.936 917.996 147.374L932.51 164.052C945.107 178.523 958.873 191.933 973.668 204.147C982.733 211.641 977.452 226.387 965.681 226.387Z" stroke="#59221D" stroke-width="5" stroke-miterlimit="10" stroke-linecap="round"/>
<path d="M900.756 206V226.327H877.916V206C877.916 200.623 876.857 195.3 874.8 190.333C872.743 185.366 869.728 180.852 865.927 177.051C862.127 173.249 857.615 170.234 852.649 168.177C847.683 166.12 842.36 165.061 836.985 165.062H859.834C865.208 165.062 870.53 166.121 875.495 168.178C880.46 170.236 884.972 173.251 888.772 177.053C892.572 180.854 895.586 185.367 897.642 190.334C899.699 195.301 900.757 200.624 900.756 206Z" fill="#A74602" stroke="#59221D" stroke-width="5" stroke-miterlimit="10"/>
<path d="M877.916 206V226.327H647.198V165.066H836.985C842.36 165.065 847.682 166.124 852.648 168.181C857.613 170.237 862.125 173.252 865.926 177.053C869.727 180.855 872.742 185.367 874.799 190.334C876.856 195.3 877.915 200.624 877.916 206Z" fill="white" stroke="#59221D" stroke-width="5" stroke-miterlimit="10"/>
<path d="M597.135 321.454V321.634C587.18 321.634 577.332 319.579 568.206 315.598C559.081 311.618 550.875 305.797 544.101 298.5L476.131 225.261H501.522L538.88 285.691C545.124 295.789 553.645 304.283 563.761 310.494C573.877 316.704 585.307 320.458 597.135 321.454Z" fill="#59221D"/>
<path d="M419.41 138.003H543.734C554.28 138.003 564.608 141.001 573.516 146.647C582.424 152.293 589.545 160.355 594.049 169.893L610.327 204.379L642.735 164.938C646.244 160.667 651.092 157.705 656.493 156.531C661.894 155.358 667.533 156.043 672.497 158.474L703.54 173.682C706.581 175.171 709.281 177.273 711.471 179.857C713.661 182.44 715.293 185.448 716.264 188.693C717.235 191.937 717.525 195.347 717.115 198.709C716.706 202.071 715.605 205.312 713.883 208.228L668.917 284.373C662.198 295.748 652.631 305.174 641.16 311.723C629.689 318.272 616.709 321.716 603.501 321.718C590.554 321.718 577.822 318.408 566.513 312.103C555.204 305.798 545.693 296.706 538.884 285.691L501.522 225.261H331.478L373.099 162.794C378.18 155.167 385.066 148.913 393.146 144.588C401.225 140.263 410.247 138.001 419.41 138.003Z" fill="#98C8DB"/>
<g opacity="0.5">
<path d="M561.752 141.002V309.216C561.122 308.806 560.498 308.382 559.88 307.943V140.395C560.507 140.586 561.134 140.79 561.752 141.002Z" fill="white"/>
<path d="M573.36 146.552V315.485C572.734 315.214 572.107 314.934 571.488 314.643V145.422C572.123 145.785 572.765 146.164 573.36 146.552Z" fill="white"/>
<path d="M584.972 156.29V319.422C584.345 319.266 583.723 319.102 583.1 318.931V154.325C583.739 154.964 584.365 155.619 584.972 156.29Z" fill="white"/>
<path d="M596.584 175.255V321.39C595.957 321.338 595.33 321.275 594.712 321.199V171.299L595.466 172.896L596.584 175.255Z" fill="white"/>
<path d="M608.191 199.859V321.57C607.573 321.614 606.946 321.642 606.319 321.666V195.894L606.431 196.134L608.191 199.859Z" fill="white"/>
<path d="M619.803 192.848V319.945C619.18 320.085 618.558 320.216 617.931 320.344V195.127L618.646 194.257L619.803 192.848Z" fill="white"/>
<path d="M631.415 178.717V316.399C630.796 316.643 630.17 316.883 629.543 317.11V180.993L631.415 178.717Z" fill="white"/>
<path d="M643.019 164.599V310.61C642.404 311.009 641.777 311.356 641.147 311.716V166.871L642.743 164.942L643.019 164.599Z" fill="white"/>
<path d="M654.634 157.013V301.926C654.02 302.489 653.397 303.036 652.762 303.575V157.663C653.397 157.42 654.004 157.204 654.634 157.013Z" fill="white"/>
<path d="M666.246 156.398V288.65H666.17C665.58 289.509 664.977 290.353 664.362 291.181V156.106C664.997 156.186 665.623 156.278 666.246 156.398Z" fill="white"/>
<path d="M677.854 161.097V269.233L675.982 272.399V160.179L677.854 161.097Z" fill="white"/>
<path d="M689.466 166.787V249.573L688.061 251.948L687.594 252.739V165.872L689.466 166.787Z" fill="white"/>
<path d="M701.077 172.476V229.908L700.451 230.97L699.205 233.078V171.558L701.077 172.476Z" fill="white"/>
<path d="M712.685 181.408V210.248L710.813 213.418V179.104C711.488 179.83 712.113 180.6 712.685 181.408Z" fill="white"/>
<path d="M399.579 141.656V225.261H397.707V142.411C398.33 142.147 398.953 141.9 399.579 141.656Z" fill="white"/>
<path d="M411.191 138.614V225.257H409.319V138.921C409.942 138.81 410.564 138.706 411.191 138.614Z" fill="white"/>
<path d="M422.803 138.003H420.931V225.261H422.803V138.003Z" fill="white"/>
<path d="M434.411 138.003H432.538V225.261H434.411V138.003Z" fill="white"/>
<path d="M446.022 138.003H444.15V225.261H446.022V138.003Z" fill="white"/>
<path d="M457.634 138.003H455.762V225.261H457.634V138.003Z" fill="white"/>
<path d="M469.242 138.003H467.37V225.261H469.242V138.003Z" fill="white"/>
<path d="M480.854 138.003H478.981V225.261H480.854V138.003Z" fill="white"/>
<path d="M492.465 138.003H490.593V225.261H492.465V138.003Z" fill="white"/>
<path d="M504.073 138.003V229.393L503.889 229.098L502.201 226.363V138.003H504.073Z" fill="white"/>
<path d="M515.685 138.003V248.175L513.813 245.145V138.003H515.685Z" fill="white"/>
<path d="M527.296 138.003V266.949L525.424 263.923V138.003H527.296Z" fill="white"/>
<path d="M538.904 138.003V285.735L538.88 285.691L537.032 282.708V138.003H538.904Z" fill="white"/>
<path d="M550.516 138.418V300.193C549.912 299.605 549.32 299.008 548.74 298.404L548.644 298.304V138.219C549.271 138.275 549.893 138.338 550.516 138.418Z" fill="white"/>
<path d="M341.529 210.188V225.261H339.656V212.999L341.529 210.188Z" fill="white"/>
<path d="M353.14 192.768V225.261H351.268V195.575L352.147 194.257L353.14 192.768Z" fill="white"/>
<path d="M364.752 175.339V225.261H362.876V178.146L364.752 175.339Z" fill="white"/>
<path d="M376.376 158.398V225.261H374.504V160.822C374.847 160.346 375.202 159.875 375.562 159.416C375.817 159.062 376.088 158.723 376.376 158.398Z" fill="white"/>
<path d="M387.972 147.737V225.261H386.099V149.079C386.682 148.64 387.276 148.214 387.88 147.801L387.972 147.737Z" fill="white"/>
<path d="M643.993 310.019C643.673 310.221 643.35 310.421 643.023 310.618C642.408 311.017 641.781 311.364 641.151 311.724C641.055 311.784 640.959 311.84 640.859 311.892H566.135C565.071 311.295 564.025 310.671 562.998 310.019H643.993Z" fill="white"/>
<path d="M658.251 298.404C657.644 299.039 657.021 299.666 656.387 300.277H550.608C550.576 300.253 550.548 300.221 550.516 300.193C549.912 299.605 549.32 299.008 548.74 298.404H658.251Z" fill="white"/>
<path d="M667.42 286.789C667.02 287.388 666.645 287.987 666.246 288.57V288.662H540.832C540.409 288.047 539.994 287.423 539.587 286.789H667.42Z" fill="white"/>
<path d="M674.345 275.178L673.235 277.051H533.539L532.382 275.178H674.345Z" fill="white"/>
<path d="M681.203 263.563L680.097 265.436H526.358L525.424 263.923L525.201 263.563H681.203Z" fill="white"/>
<path d="M688.061 251.948L687.594 252.739L686.955 253.825H519.181L518.024 251.948H688.061Z" fill="white"/>
<path d="M694.699 240.709L693.593 242.585H512.232L511.07 240.709H694.699Z" fill="white"/>
<path d="M701.556 229.098L701.077 229.908L700.451 230.97H505.047L504.073 229.393L503.889 229.098H701.556Z" fill="white"/>
<path d="M708.414 217.483L707.308 219.355H335.421L336.671 217.483H708.414Z" fill="white"/>
<path d="M715.108 205.872C714.821 206.503 714.501 207.13 714.154 207.745H343.157L344.411 205.872H715.108Z" fill="white"/>
<path d="M606.431 196.13H350.897L351.268 195.575L352.146 194.257H605.549L606.319 195.89L606.431 196.13Z" fill="white"/>
<path d="M717.423 194.257V196.13H617.109L617.931 195.127L618.646 194.257H717.423Z" fill="white"/>
<path d="M600.951 184.515H358.633L359.882 182.642H600.064L600.951 184.515Z" fill="white"/>
<path d="M711.112 182.642V184.515H626.649L628.19 182.642H711.112Z" fill="white"/>
<path d="M595.466 172.904H366.373L367.618 171.031H594.712V171.299L595.466 172.904Z" fill="white"/>
<path d="M701.947 172.904H636.193L637.734 171.031H698.124L699.205 171.558L701.077 172.477L701.947 172.904Z" fill="white"/>
<path d="M588.999 161.281H374.148C374.26 161.125 374.372 160.965 374.488 160.814C374.831 160.338 375.186 159.867 375.546 159.408H587.598C588.077 160.027 588.544 160.654 588.999 161.281Z" fill="white"/>
<path d="M678.241 161.281H646.452C647.312 160.594 648.219 159.968 649.166 159.408H674.421L675.982 160.171L677.854 161.089L678.241 161.281Z" fill="white"/>
<path d="M577.823 149.674H385.313C385.569 149.478 385.832 149.275 386.111 149.079C386.694 148.64 387.288 148.214 387.892 147.801H575.272C576.134 148.396 576.989 149.023 577.823 149.674Z" fill="white"/>
</g>
<path d="M633.726 177.024L593.179 226.387" stroke="#59221D" stroke-width="5" stroke-miterlimit="10" stroke-linecap="round"/>
<path d="M547.534 138.003C556.379 138.003 565.051 140.462 572.58 145.105C580.11 149.747 586.202 156.391 590.177 164.295L610.327 204.379" stroke="#59221D" stroke-width="5" stroke-miterlimit="10" stroke-linecap="round"/>
<path d="M501.147 227.133L491.751 207.932" stroke="#59221D" stroke-width="5" stroke-miterlimit="10" stroke-linecap="round"/>
<path d="M463.514 138.003H446.022L463.753 127.139V172.341L503.027 138.374L499.574 127.139H504.596C506.805 127.138 508.967 127.779 510.819 128.983L524.674 138.003H503.311" stroke="#59221D" stroke-width="5" stroke-miterlimit="10" stroke-linecap="round"/>
<path d="M502.281 138.003L464.5 171.965V113.819H494.824L502.281 138.003Z" fill="#632D23"/>
<path d="M494.824 113.815L502.281 138.003L464.504 123.014V113.815H494.824Z" fill="#1A0C12"/>
<path d="M495.727 98.5386V99.4729H494.357C493.268 99.4729 492.223 99.9058 491.453 100.676C490.683 101.447 490.25 102.492 490.25 103.581V104.236C488.71 104.196 487.222 103.667 486.002 102.726C484.782 101.784 483.893 100.478 483.464 98.9978L482.81 96.722C482.248 94.7792 481.07 93.0717 479.454 91.8568C477.837 90.6418 475.87 89.9853 473.848 89.9861H469.102C467.877 89.9856 466.663 90.2266 465.531 90.6953C464.399 91.164 463.37 91.8512 462.503 92.7177C461.637 93.5843 460.949 94.6131 460.48 95.7455C460.011 96.8778 459.77 98.0915 459.77 99.3172V98.5187C459.77 94.877 461.216 91.3844 463.79 88.8093C466.365 86.2342 469.856 84.7876 473.497 84.7876H481.999C483.804 84.7876 485.59 85.1434 487.257 85.8347C488.924 86.526 490.438 87.5392 491.713 88.8164C492.988 90.0935 493.999 91.6096 494.687 93.2779C495.376 94.9461 495.729 96.7338 495.727 98.5386Z" fill="#1A0C12"/>
<path d="M504.907 106.808C504.906 108.752 504.133 110.617 502.758 111.991C501.383 113.366 499.519 114.138 497.575 114.138H491.551L488.917 118.319C488.259 119.363 487.348 120.223 486.268 120.819C485.188 121.415 483.975 121.728 482.742 121.729H467.066C465.131 121.727 463.275 120.958 461.907 119.588C460.538 118.219 459.77 116.362 459.77 114.426V99.3173C459.77 98.0916 460.011 96.8778 460.48 95.7455C460.949 94.6131 461.637 93.5843 462.503 92.7178C463.37 91.8512 464.399 91.164 465.531 90.6953C466.663 90.2266 467.877 89.9856 469.102 89.9861H473.836C475.858 89.9853 477.825 90.6419 479.442 91.8568C481.058 93.0717 482.236 94.7792 482.798 96.722L483.452 98.9978C483.881 100.478 484.77 101.784 485.99 102.726C487.21 103.667 488.698 104.196 490.238 104.236V103.582C490.238 102.492 490.671 101.447 491.441 100.676C492.211 99.9058 493.256 99.4729 494.345 99.4729H497.571C498.534 99.4724 499.488 99.6618 500.378 100.03C501.268 100.398 502.077 100.939 502.758 101.62C503.44 102.301 503.98 103.11 504.349 104C504.718 104.89 504.907 105.844 504.907 106.808Z" fill="#632D23"/>
<path d="M494.373 107.327C494.373 106.238 494.806 105.193 495.575 104.423C496.344 103.653 497.388 103.219 498.477 103.218" stroke="#1A0C12" stroke-width="5" stroke-miterlimit="10" stroke-linecap="round"/>
<path d="M467.745 110.784C463.426 110.784 465.781 99.968 465.781 99.968C465.781 99.968 462.735 99.3092 460.145 99.968" stroke="#1A0C12" stroke-width="5" stroke-miterlimit="10" stroke-linecap="round"/>
<path d="M472.866 99.3452C472.866 99.3452 476.898 99.1016 479.792 100.467" stroke="#1A0C12" stroke-width="5" stroke-miterlimit="10" stroke-linecap="round"/>
<path d="M475.162 106.496C475.746 106.496 476.219 105.69 476.219 104.695C476.219 103.701 475.746 102.895 475.162 102.895C474.577 102.895 474.104 103.701 474.104 104.695C474.104 105.69 474.577 106.496 475.162 106.496Z" fill="#1A0C12"/>
<path d="M461.682 106.38C462.228 106.38 462.672 105.626 462.672 104.695C462.672 103.765 462.228 103.011 461.682 103.011C461.135 103.011 460.692 103.765 460.692 104.695C460.692 105.626 461.135 106.38 461.682 106.38Z" fill="#1A0C12"/>
<path d="M468.683 114.514C468.683 114.514 473.254 114.913 474.108 113.396" stroke="#1A0C12" stroke-width="5" stroke-miterlimit="10" stroke-linecap="round"/>
<path d="M717.088 192.54C707.819 197.331 695.218 196.409 688.284 191.953L673.543 182.478C665.045 177.016 659.668 166.048 662.566 155.986C663.169 156.01 663.763 156.05 664.374 156.118C664.985 156.186 665.623 156.278 666.246 156.398C668.415 156.806 670.519 157.504 672.501 158.474L674.421 159.416L675.982 160.179L677.854 161.097L678.253 161.289L687.605 165.872L689.478 166.787L698.136 171.031L699.217 171.558L701.089 172.476L701.959 172.904L703.556 173.702C706.298 175.039 708.765 176.878 710.829 179.124C711.504 179.85 712.129 180.619 712.701 181.428C715.051 184.717 716.558 188.533 717.088 192.54Z" fill="#1A0C12"/>
<path d="M676.828 175.83C672.286 172.94 668.854 168.598 667.089 163.511C665.325 158.423 665.332 152.888 667.108 147.805C672.297 133.032 681.638 112.669 690.104 113.14C694.347 113.384 690.459 129.055 696.814 129.299C704.287 129.586 733.717 85.8736 741.173 90.7447C748.63 95.6159 758.206 131.539 750.003 147.442C745.544 156.09 731.681 171.862 719.694 182.546C715.811 186.004 710.906 188.1 705.724 188.514C700.541 188.929 695.365 187.639 690.982 184.842L676.828 175.83Z" fill="#632D23"/>
<path d="M751.592 123.713C749.752 127.278 739.218 144.328 735.625 149.414" stroke="#1A0C12" stroke-width="5" stroke-miterlimit="10" stroke-linecap="round"/>
<path d="M749.241 109.774C747.401 113.344 733.25 134.13 729.227 139.093" stroke="#1A0C12" stroke-width="5" stroke-miterlimit="10" stroke-linecap="round"/>
<path d="M745.245 98.2512C743.405 101.821 726.58 122.084 722.56 127.067" stroke="#1A0C12" stroke-width="5" stroke-miterlimit="10" stroke-linecap="round"/>
<path d="M695.182 136.562C695.182 136.562 701.967 154.789 694.188 170.572" stroke="#1A0C12" stroke-width="5" stroke-miterlimit="10" stroke-linecap="round"/>
<path d="M348.75 226.387H280.808C279.698 205.369 291.186 189.15 308.35 188.999C325.682 188.831 342.846 205.117 348.75 226.387Z" stroke="#59221D" stroke-width="5" stroke-miterlimit="10" stroke-linecap="round"/>
<path d="M900.988 455.946H1069.58C1068.18 414.314 1039.07 373.811 985.196 373.811C938.865 373.799 903.419 412.577 900.988 455.946Z" fill="#59221D"/>
<path d="M1077.83 414.849C1061.86 377.596 1026.39 351.679 985.196 351.679C942.569 351.679 906.073 379.425 890.992 418.758" stroke="#59221D" stroke-width="5" stroke-miterlimit="10" stroke-linecap="round"/>
<path d="M992.884 518.441H977.643C944.672 518.441 920.463 490.168 920.463 455.296C920.463 420.423 944.672 392.154 977.643 392.154H992.884C961.074 392.154 935.288 420.419 935.288 455.296C935.288 490.172 961.074 518.441 992.884 518.441Z" fill="#A74602" stroke="#59221D" stroke-width="5" stroke-miterlimit="10"/>
<path d="M1050.47 455.295C1050.47 489.861 1025.14 517.938 993.73 518.433H992.884C961.074 518.433 935.288 490.16 935.288 455.287C935.288 420.415 961.074 392.146 992.884 392.146H993.73C1025.14 392.657 1050.47 420.73 1050.47 455.295Z" fill="white" stroke="#59221D" stroke-width="5" stroke-miterlimit="10"/>
<path d="M992.88 500.745C1015.52 500.745 1033.88 480.618 1033.88 455.791C1033.88 430.963 1015.52 410.836 992.88 410.836C970.235 410.836 951.877 430.963 951.877 455.791C951.877 480.618 970.235 500.745 992.88 500.745Z" stroke="#59221D" stroke-width="5" stroke-miterlimit="10"/>
<path d="M248.747 455.946H417.342C415.937 414.314 386.83 373.811 332.959 373.811C286.627 373.799 251.181 412.577 248.747 455.946Z" fill="#59221D"/>
<path d="M425.589 414.849C409.622 377.596 374.156 351.679 332.959 351.679C290.332 351.679 253.836 379.425 238.755 418.758" stroke="#59221D" stroke-width="5" stroke-miterlimit="10" stroke-linecap="round"/>
<path d="M340.642 518.441H325.406C292.435 518.441 268.222 490.168 268.222 455.296C268.222 420.423 292.435 392.154 325.406 392.154H340.642C308.837 392.154 283.051 420.419 283.051 455.296C283.051 490.172 308.837 518.441 340.642 518.441Z" fill="#A74602" stroke="#59221D" stroke-width="5" stroke-miterlimit="10"/>
<path d="M398.234 455.295C398.234 489.857 372.907 517.934 341.493 518.433H340.642C308.837 518.433 283.051 490.16 283.051 455.287C283.051 420.415 308.837 392.146 340.642 392.146H341.493C372.907 392.661 398.234 420.734 398.234 455.295Z" fill="white" stroke="#59221D" stroke-width="5" stroke-miterlimit="10"/>
<path d="M340.642 500.745C363.287 500.745 381.645 480.618 381.645 455.791C381.645 430.963 363.287 410.836 340.642 410.836C317.997 410.836 299.64 430.963 299.64 455.791C299.64 480.618 317.997 500.745 340.642 500.745Z" stroke="#59221D" stroke-width="5" stroke-miterlimit="10"/>
<path d="M1160.54 299.941H1127.37C1121.65 299.941 1116.46 296.284 1114.12 290.61L1107.2 273.757C1105.2 268.886 1108.48 263.376 1113.39 263.376H1160.54V299.941Z" fill="white"/>
<path d="M1160.61 299.941H1120.53C1117.49 299.938 1114.52 299.056 1111.97 297.4C1109.42 295.745 1107.4 293.386 1106.16 290.61L1098.65 273.757C1098.14 272.634 1097.93 271.404 1098.02 270.178C1098.12 268.951 1098.52 267.768 1099.19 266.736C1099.85 265.704 1100.77 264.855 1101.85 264.269C1102.93 263.682 1104.14 263.375 1105.37 263.376H1160.62L1160.61 299.941Z" stroke="#59221D" stroke-width="5" stroke-miterlimit="10" stroke-linecap="round"/>
<path d="M1160.39 275.945H1100.26" stroke="#59221D" stroke-width="5" stroke-miterlimit="10" stroke-linecap="round"/>
<path d="M1160.39 287.775H1105.16" stroke="#59221D" stroke-width="5" stroke-miterlimit="10" stroke-linecap="round"/>
<path d="M190.261 347.048H176.138V331.875C176.142 322.729 178.785 313.777 183.75 306.096C188.715 298.415 195.791 292.331 204.128 288.574L209.429 286.178V327.843C209.434 330.364 208.942 332.861 207.981 335.191C207.02 337.521 205.609 339.639 203.828 341.423C202.048 343.207 199.933 344.622 197.605 345.588C195.277 346.553 192.781 347.049 190.261 347.048Z" fill="white"/>
<path d="M49.0598 348.541H34.9413V333.369C34.9405 324.221 37.5816 315.268 42.5471 307.586C47.5126 299.904 54.5909 293.821 62.9308 290.067L68.2277 287.672V329.376C68.2277 331.893 67.7319 334.386 66.7685 336.712C65.8051 339.038 64.3931 341.151 62.6131 342.931C60.8331 344.71 58.7199 346.122 56.3944 347.085C54.0689 348.047 51.5766 348.542 49.0598 348.541Z" fill="white"/>
<path d="M649.677 414.865H851.782C861.092 386.999 878.067 362.323 900.76 343.67V234.268" stroke="#59221D" stroke-width="5" stroke-miterlimit="10" stroke-linecap="round"/>
<path d="M634.92 161.281V71.1244C634.92 66.3591 633.027 61.7891 629.659 58.4196C626.29 55.05 621.721 53.157 616.957 53.157H358.533C350.266 53.1575 342.131 55.2432 334.883 59.2211C327.635 63.1991 321.506 68.9409 317.064 75.9157" stroke="#59221D" stroke-width="5" stroke-miterlimit="10" stroke-linecap="round"/>
<path d="M373.861 329.376C394.035 336.108 412.442 347.282 427.725 362.074C443.009 376.867 454.779 394.901 462.169 414.849H634.92V325.411" stroke="#59221D" stroke-width="5" stroke-miterlimit="10" stroke-linecap="round"/>
<path d="M825.014 249.269C823.542 246.303 826.695 243.332 828.767 243.332H870.416C872.487 243.332 875.234 245.624 874.168 249.269" stroke="#59221D" stroke-width="5" stroke-miterlimit="10" stroke-linecap="round"/>
<path d="M176.138 454.996V329.344C176.14 320.924 178.561 312.681 183.114 305.599C187.666 298.516 194.159 292.892 201.817 289.396L364.117 225.932L466.879 64.6561C471.32 57.6816 477.448 51.9399 484.696 47.962C491.944 43.984 500.077 41.8982 508.344 41.8974" stroke="#59221D" stroke-width="5" stroke-miterlimit="10" stroke-linecap="round"/>
<path d="M498.648 226.387H221.156" stroke="#59221D" stroke-width="5" stroke-miterlimit="10" stroke-linecap="round"/>
<path d="M227.315 216.68L222.769 223.815C220.007 220.909 219.671 220.418 212.526 220.418H192.324C190.765 220.418 189.221 220.111 187.78 219.515C186.339 218.918 185.03 218.044 183.928 216.941C182.825 215.838 181.95 214.529 181.353 213.088C180.756 211.647 180.449 210.103 180.449 208.543V201.356C180.449 199.796 180.756 198.252 181.353 196.811C181.95 195.37 182.825 194.061 183.928 192.958C185.03 191.856 186.339 190.981 187.78 190.384C189.221 189.788 190.765 189.481 192.324 189.482H199.909C203.205 189.482 206.448 190.313 209.339 191.899C212.229 193.484 214.674 195.773 216.446 198.553L227.315 216.68Z" fill="white" stroke="#59221D" stroke-width="5" stroke-miterlimit="10" stroke-linecap="round"/>
<path d="M223.296 222.989L222.35 224.474C221.424 223.767 220.428 223.158 219.376 222.657C215.428 220.777 210.798 220.418 204.73 220.418H184.525C182.965 220.418 181.421 220.111 179.981 219.515C178.54 218.918 177.231 218.044 176.128 216.941C175.025 215.838 174.15 214.529 173.554 213.088C172.957 211.647 172.65 210.103 172.65 208.543V201.356C172.65 199.796 172.957 198.252 173.554 196.811C174.15 195.37 175.025 194.061 176.128 192.958C177.231 191.856 178.54 190.981 179.981 190.384C181.421 189.788 182.965 189.481 184.525 189.482H192.109C195.405 189.482 198.649 190.313 201.539 191.898C204.43 193.484 206.874 195.773 208.646 198.553L223.296 222.989Z" fill="white"/>
<path d="M172.654 201.672V208.543C172.653 210.103 172.96 211.647 173.556 213.088C174.152 214.529 175.027 215.838 176.129 216.941C177.232 218.044 178.541 218.918 179.981 219.515C181.422 220.111 182.966 220.418 184.525 220.418H204.734C210.806 220.418 215.436 220.773 219.38 222.657L207.804 203.329C206.032 200.547 203.588 198.258 200.698 196.671C197.807 195.085 194.564 194.253 191.267 194.253H183.682C181.314 194.247 178.998 194.951 177.032 196.273C175.067 197.595 173.542 199.475 172.654 201.672Z" fill="#FF9F1C"/>
<path d="M223.296 222.989L222.35 224.474C217.755 220.981 212.371 220.418 204.73 220.418H184.525C182.965 220.418 181.421 220.111 179.981 219.515C178.54 218.918 177.231 218.044 176.128 216.941C175.025 215.838 174.15 214.529 173.554 213.088C172.957 211.647 172.65 210.103 172.65 208.543V201.356C172.65 199.796 172.957 198.252 173.554 196.811C174.15 195.37 175.025 194.061 176.128 192.958C177.231 191.856 178.54 190.981 179.981 190.384C181.421 189.788 182.965 189.481 184.525 189.482H192.109C195.405 189.482 198.649 190.313 201.539 191.898C204.43 193.484 206.874 195.773 208.646 198.553L223.296 222.989Z" stroke="#59221D" stroke-width="5" stroke-miterlimit="10" stroke-linecap="round"/>
<path d="M448.773 201.628V208.815C448.773 210.374 448.466 211.918 447.87 213.359C447.274 214.8 446.399 216.11 445.297 217.212C444.194 218.315 442.885 219.19 441.445 219.786C440.004 220.383 438.461 220.69 436.901 220.689H396.893C390.822 220.689 386.191 221.044 382.248 222.929C380.536 223.747 378.969 224.839 377.609 226.163H376.579L392.945 198.829C394.717 196.048 397.161 193.759 400.052 192.173C402.942 190.588 406.186 189.757 409.483 189.757H436.885C438.446 189.755 439.991 190.06 441.433 190.655C442.875 191.25 444.186 192.124 445.29 193.227C446.394 194.329 447.27 195.639 447.867 197.08C448.465 198.522 448.773 200.067 448.773 201.628Z" fill="white"/>
<path d="M448.773 201.939V208.795C448.773 210.354 448.466 211.898 447.87 213.339C447.274 214.78 446.399 216.09 445.297 217.192C444.194 218.295 442.885 219.17 441.445 219.766C440.004 220.363 438.46 220.67 436.901 220.669H396.893C390.822 220.669 386.191 221.024 382.248 222.909L393.823 203.58C395.595 200.799 398.039 198.509 400.93 196.923C403.82 195.337 407.064 194.505 410.361 194.505H437.764C440.13 194.505 442.443 195.213 444.405 196.537C446.367 197.862 447.888 199.743 448.773 201.939Z" fill="#FF9F1C"/>
<path d="M448.773 201.628V208.815C448.773 210.374 448.466 211.918 447.87 213.359C447.274 214.8 446.399 216.11 445.297 217.212C444.194 218.315 442.885 219.19 441.445 219.786C440.004 220.383 438.461 220.69 436.901 220.689H396.893C388.295 220.689 382.579 221.4 377.609 226.163H376.579L392.945 198.829C394.717 196.048 397.161 193.759 400.052 192.173C402.942 190.588 406.186 189.757 409.483 189.757H436.885C438.446 189.755 439.991 190.06 441.433 190.655C442.875 191.25 444.186 192.124 445.29 193.227C446.394 194.329 447.27 195.639 447.867 197.08C448.465 198.522 448.773 200.067 448.773 201.628Z" stroke="#59221D" stroke-width="5" stroke-miterlimit="10" stroke-linecap="round"/>
</svg>
