<svg width="542" height="636" viewBox="0 0 542 636" fill="none" xmlns="http://www.w3.org/2000/svg">
<path d="M539.227 421.308V594.473C539.227 600.856 536.693 606.976 532.181 611.489C527.669 616.002 521.55 618.538 515.17 618.538H411.199C404.843 618.5 398.76 615.948 394.279 611.439C389.798 606.93 387.282 600.831 387.281 594.473V421.308C387.281 414.949 389.796 408.848 394.277 404.338C398.758 399.828 404.842 397.274 411.199 397.235H515.174C521.554 397.237 527.673 399.775 532.184 404.289C536.695 408.803 539.228 414.925 539.227 421.308Z" fill="#FDFFFC" stroke="#59221D" stroke-width="5" stroke-miterlimit="10"/>
<path d="M442.41 424.634V594.086C442.41 607.051 431.716 617.56 418.492 617.643C405.271 617.568 394.578 607.059 394.578 594.086V424.634C394.578 411.669 405.271 401.156 418.492 401.076C431.716 401.156 442.41 411.669 442.41 424.634Z" fill="#98C8DB"/>
<path d="M435.109 421.308V594.473C435.15 597.641 434.561 600.785 433.378 603.723C432.194 606.662 430.439 609.336 428.214 611.59C425.989 613.845 423.339 615.635 420.417 616.856C417.495 618.078 414.36 618.707 411.193 618.707C408.026 618.707 404.89 618.078 401.968 616.856C399.047 615.635 396.396 613.845 394.171 611.59C391.946 609.336 390.191 606.662 389.008 603.723C387.824 600.785 387.236 597.641 387.277 594.473V421.308C387.236 418.14 387.824 414.996 389.008 412.058C390.191 409.119 391.946 406.445 394.171 404.191C396.396 401.937 399.047 400.146 401.968 398.925C404.89 397.703 408.026 397.074 411.193 397.074C414.36 397.074 417.495 397.703 420.417 398.925C423.339 400.146 425.989 401.937 428.214 404.191C430.439 406.445 432.194 409.119 433.378 412.058C434.561 414.996 435.15 418.14 435.109 421.308Z" stroke="#59221D" stroke-width="5" stroke-miterlimit="10"/>
<path d="M512.679 635.679C516.18 635.679 519.018 632.84 519.018 629.338C519.018 625.836 516.18 622.998 512.679 622.998C509.178 622.998 506.34 625.836 506.34 629.338C506.34 632.84 509.178 635.679 512.679 635.679Z" stroke="#59221D" stroke-width="5" stroke-miterlimit="10" stroke-linecap="round"/>
<path d="M435.456 635.679C438.957 635.679 441.795 632.84 441.795 629.338C441.795 625.836 438.957 622.998 435.456 622.998C431.955 622.998 429.117 625.836 429.117 629.338C429.117 632.84 431.955 635.679 435.456 635.679Z" stroke="#59221D" stroke-width="5" stroke-miterlimit="10" stroke-linecap="round"/>
<path d="M489.395 315.695H441.931V397.239H489.395V315.695Z" stroke="#59221D" stroke-width="5" stroke-miterlimit="10" stroke-linecap="round"/>
<path d="M495.63 313.775H434.945V317.6H495.63V313.775Z" fill="#59221D"/>
<path d="M459.314 424.634V594.086" stroke="#59221D" stroke-width="5" stroke-miterlimit="10" stroke-linecap="round"/>
<path d="M478.909 424.634V594.086" stroke="#59221D" stroke-width="5" stroke-miterlimit="10" stroke-linecap="round"/>
<path d="M498.5 424.634V594.086" stroke="#59221D" stroke-width="5" stroke-miterlimit="10" stroke-linecap="round"/>
<path d="M518.095 424.634V594.086" stroke="#59221D" stroke-width="5" stroke-miterlimit="10" stroke-linecap="round"/>
<path d="M525.073 440.209H491.419V458.189H525.073V440.209Z" fill="#F5BBBB"/>
<path d="M487.85 478.626L463.315 486.629L471.315 511.17L495.85 503.168L487.85 478.626Z" fill="#FFC200"/>
<path d="M511.561 535.205H489.395V549.994H511.561V535.205Z" fill="#98C8DB"/>
<path d="M502.269 75.9263H476.395C473.172 75.9263 470.559 78.5398 470.559 81.7637V134.093C470.559 137.317 473.172 139.93 476.395 139.93H502.269C505.492 139.93 508.104 137.317 508.104 134.093V81.7637C508.104 78.5398 505.492 75.9263 502.269 75.9263Z" fill="#98C8DB"/>
<path d="M503.458 149.836L479.56 154.723C476.348 150.223 472.777 145.99 468.882 142.066C460.304 133.314 451.107 126.894 444.713 124.65L449.391 104.906C449.894 102.781 451.08 100.88 452.766 99.4943C454.452 98.1082 456.546 97.3134 458.727 97.2316L470.567 96.8004C470.568 97.9566 470.799 99.1011 471.247 100.167C471.696 101.233 472.352 102.198 473.178 103.007C474.004 103.816 474.983 104.452 476.057 104.878C477.132 105.305 478.28 105.512 479.436 105.489L499.598 105.089C501.87 105.043 504.033 104.109 505.624 102.486C507.215 100.863 508.107 98.6818 508.108 96.4091V92.8915C509.531 92.966 510.875 93.5695 511.876 94.5836C512.878 95.5977 513.464 96.9493 513.521 98.3735L514.966 133.833C515.114 137.404 514.061 140.921 511.975 143.823C509.888 146.724 506.89 148.841 503.458 149.836Z" fill="#A74602"/>
<path d="M512.986 106.088C513.286 113.438 504.807 116.317 496.517 117.267" stroke="#59221D" stroke-width="5" stroke-miterlimit="10" stroke-linecap="round"/>
<path d="M513.317 116.728C513.617 124.083 505.139 126.958 496.848 127.908" stroke="#59221D" stroke-width="5" stroke-miterlimit="10" stroke-linecap="round"/>
<path d="M514.212 127.109C514.511 134.46 506.029 136.944 497.738 137.89" stroke="#59221D" stroke-width="5" stroke-miterlimit="10" stroke-linecap="round"/>
<path d="M500.999 85.429C502.203 85.429 503.179 84.453 503.179 83.249C503.179 82.045 502.203 81.0689 500.999 81.0689C499.795 81.0689 498.82 82.045 498.82 83.249C498.82 84.453 499.795 85.429 500.999 85.429Z" stroke="#59221D" stroke-width="4" stroke-miterlimit="10" stroke-linecap="round"/>
<path d="M154.862 330.381L239.494 353.028L155.058 586.72H65.6967L154.862 330.381Z" fill="#A74602"/>
<path d="M154.862 330.381L239.494 353.028L231.327 375.631L146.983 353.028L154.862 330.381Z" fill="#59221D"/>
<path d="M341.772 586.72H255.804L247.609 353.027H326.715L341.772 586.72Z" fill="#A74602"/>
<path d="M327.103 358.993L248.567 380.254H248.563L247.609 353.027H326.719L327.103 358.993Z" fill="#59221D"/>
<path d="M157.597 620.634C158.94 621.155 160.095 622.07 160.91 623.26C161.725 624.449 162.162 625.856 162.163 627.298V635.683H67.7644C65.6886 635.682 63.643 635.185 61.7985 634.232C59.954 633.279 58.3642 631.899 57.1616 630.207C55.9591 628.514 55.1788 626.558 54.886 624.503C54.5931 622.447 54.7961 620.351 55.4781 618.39L66.5789 586.448L154.072 586.847L149.861 599.153C148.474 603.075 148.486 607.357 149.896 611.271C151.307 615.185 154.027 618.49 157.597 620.626V620.634Z" fill="white" stroke="#59221D" stroke-width="5" stroke-miterlimit="10"/>
<path d="M162.171 635.679H67.7644C65.6886 635.678 63.643 635.181 61.7985 634.228C59.954 633.275 58.3642 631.895 57.1616 630.203C55.9591 628.51 55.1788 626.554 54.886 624.499C54.5931 622.443 54.7961 620.347 55.4781 618.386L57.7853 611.746C57.4008 613.637 57.4413 615.59 57.9039 617.464C58.3665 619.338 59.2397 621.085 60.4602 622.58C61.6806 624.075 63.218 625.28 64.961 626.107C66.704 626.935 68.6092 627.365 70.5386 627.366H162.159L162.171 635.679Z" fill="#FFC200" stroke="#59221D" stroke-width="5" stroke-miterlimit="10"/>
<path d="M124.071 586.72L122.135 593.463C121.686 595.018 121.605 596.655 121.898 598.246C122.19 599.837 122.848 601.338 123.82 602.631C124.792 603.924 126.052 604.973 127.499 605.696C128.946 606.419 130.541 606.795 132.158 606.795H147.725L154.084 586.875L124.071 586.72Z" fill="#FFC200" stroke="#59221D" stroke-width="5" stroke-miterlimit="10"/>
<path d="M118.518 586.72L116.171 594.869C115.626 596.753 115.526 598.738 115.88 600.667C116.233 602.596 117.031 604.417 118.209 605.985C119.387 607.552 120.914 608.825 122.668 609.7C124.423 610.576 126.357 611.032 128.318 611.031H149.933" stroke="#59221D" stroke-width="5" stroke-miterlimit="10"/>
<path d="M359.571 635.679H271.954C268.079 635.68 264.355 634.176 261.568 631.484C258.781 628.792 257.148 625.122 257.013 621.249L256.614 586.492L256.726 586.464H340.993L342.838 604.731C343.144 607.747 344.229 610.632 345.987 613.102C347.745 615.571 350.115 617.541 352.865 618.817C354.792 619.711 356.43 621.129 357.592 622.908C358.753 624.688 359.392 626.758 359.435 628.883L359.571 635.679Z" fill="white" stroke="#59221D" stroke-width="5" stroke-miterlimit="10"/>
<path d="M359.571 635.679H271.954C268.079 635.68 264.355 634.176 261.568 631.484C258.781 628.792 257.148 625.122 257.013 621.249L256.917 613.072H257.021C257.191 616.919 258.838 620.553 261.62 623.216C264.402 625.879 268.103 627.365 271.954 627.366H359.307C359.387 627.868 359.432 628.375 359.443 628.883L359.571 635.679Z" fill="#FFC200" stroke="#59221D" stroke-width="5" stroke-miterlimit="10"/>
<path d="M343.173 606.783H333.936C330.536 606.783 327.275 605.432 324.87 603.027C322.466 600.622 321.115 597.36 321.115 593.958V586.464H340.994L342.838 604.731C342.908 605.421 343.02 606.106 343.173 606.783Z" fill="#FFC200" stroke="#59221D" stroke-width="5" stroke-miterlimit="10"/>
<path d="M344.754 611.031H331.445C327.592 611.031 323.896 609.5 321.171 606.775C318.447 604.049 316.916 600.352 316.916 596.498V586.48" stroke="#59221D" stroke-width="5" stroke-miterlimit="10"/>
<path d="M335.824 353.027H247.609L246.894 332.545L239.494 353.027L154.87 330.381L199.242 202.852C224.856 218.619 317.059 202.852 317.059 202.852H318.257L335.824 353.027Z" fill="#F5BBBB"/>
<path d="M323.374 246.788V353.012H320.999V226.509L323.374 246.788Z" fill="white"/>
<path d="M310.773 203.846V353.012H308.398V204.197L310.773 203.846Z" fill="white"/>
<path d="M298.171 205.611V353.012H295.776V205.914L298.171 205.611Z" fill="white"/>
<path d="M285.565 207.116V353.012H283.194V207.364L285.565 207.116Z" fill="white"/>
<path d="M272.964 208.342V353.012H270.569V208.562C271.38 208.49 272.179 208.417 272.964 208.342Z" fill="white"/>
<path d="M260.362 209.256V352.996H257.967V209.376C258.773 209.36 259.568 209.304 260.362 209.256Z" fill="white"/>
<path d="M247.756 209.779V330.157L245.381 336.729V209.827L247.756 209.779Z" fill="white"/>
<path d="M235.167 209.787V351.87L232.772 351.227V209.711C233.57 209.759 234.368 209.759 235.167 209.787Z" fill="white"/>
<path d="M222.549 209.037V348.492L220.174 347.857V208.777C220.954 208.873 221.745 208.96 222.549 209.037Z" fill="white"/>
<path d="M209.943 206.992V345.114L207.572 344.483V206.362C208.339 206.565 209.133 206.793 209.943 206.992Z" fill="white"/>
<path d="M197.346 208.25V341.748L194.971 341.109V215.082L197.346 208.25Z" fill="white"/>
<path d="M184.74 244.488V338.374L182.365 337.735V251.32L184.74 244.488Z" fill="white"/>
<path d="M172.138 280.719V335L169.763 334.365V287.55L172.138 280.719Z" fill="white"/>
<path d="M318.62 206.166C237.793 227.899 191.446 225.79 191.446 225.79L199.242 202.852C224.856 218.619 317.059 202.852 317.059 202.852H318.257L318.62 206.166Z" fill="#59221D"/>
<path d="M248.798 353.027L243.757 260.408L226.405 245.822" stroke="#59221D" stroke-width="6" stroke-miterlimit="10"/>
<path d="M298.171 261.478L281.398 269.795L264.629 261.478V232.418H298.171V261.478Z" fill="#F5BBBB" stroke="#592D29" stroke-width="6" stroke-linejoin="round"/>
<path d="M212.654 261.478L195.881 269.795L179.112 261.478L189.406 232.418H212.654V261.478Z" fill="#F5BBBB" stroke="#592D29" stroke-width="6" stroke-linejoin="round"/>
<path d="M484.933 171.72C484.873 171.792 484.809 171.86 484.741 171.928L431.049 230.574C423.448 238.875 413.669 244.875 402.826 247.89C391.983 250.905 380.511 250.813 369.717 247.626C358.924 244.439 349.242 238.284 341.774 229.862C334.306 221.44 329.353 211.089 327.478 199.989L317.04 138.205V202.856C317.04 202.856 224.832 218.623 199.222 202.856L162.71 307.314C162.712 307.324 162.712 307.333 162.71 307.342C160.786 312.345 144.787 311.539 126.893 304.747C108.998 297.955 95.5224 288.656 97.3546 283.633C97.3529 283.624 97.3529 283.615 97.3546 283.605C97.3564 283.591 97.3564 283.576 97.3546 283.561L168.953 95.5666C172.833 85.3815 179.716 76.6165 188.69 70.4336C197.663 64.2506 208.304 60.9416 219.2 60.9454H326.576C338.836 60.9454 350.729 65.1383 360.28 72.8284C369.831 80.5185 376.466 91.2437 379.086 103.225L393.883 166.965L437.5 124.742C441.408 120.901 455.862 128.778 468.878 142.066C481.696 155.127 488.421 167.652 484.933 171.72Z" fill="#FDFFFC" stroke="#59221D" stroke-width="5" stroke-miterlimit="10"/>
<path d="M162.71 307.314C162.712 307.324 162.712 307.333 162.71 307.342C160.786 312.345 144.787 311.539 126.893 304.747C108.998 297.955 95.5224 288.656 97.3546 283.633C97.3529 283.624 97.3529 283.615 97.3546 283.605C97.3564 283.591 97.3564 283.576 97.3546 283.561C99.3504 278.599 115.88 279.816 133.743 286.592C151.605 293.368 164.554 302.296 162.71 307.314Z" fill="#FDFFFC" stroke="#59221D" stroke-width="5" stroke-miterlimit="10"/>
<path d="M37.1126 355.61L8.96815 436.588C4.01518 450.839 11.5495 466.408 25.7965 471.362L70.848 487.029C85.095 491.983 100.66 484.447 105.613 470.196L133.757 389.217C138.71 374.967 131.176 359.398 116.929 354.443L71.8772 338.777C57.6302 333.822 42.0655 341.359 37.1126 355.61Z" stroke="#59221D" stroke-width="5" stroke-miterlimit="10" stroke-linecap="round"/>
<path d="M126.458 410.22L105.609 470.207C104.432 473.595 102.598 476.719 100.214 479.398C97.8295 482.078 94.9407 484.261 91.7126 485.824C88.4844 487.387 84.9801 488.298 81.3998 488.506C77.8195 488.714 74.2333 488.215 70.846 487.036L25.7921 471.369C18.9513 468.989 13.3356 463.989 10.1797 457.468C7.02385 450.947 6.5863 443.439 8.96327 436.596L29.8117 376.609C32.7127 368.265 38.8077 361.416 46.7565 357.567C54.7052 353.717 63.8569 353.183 72.1991 356.082L105.945 367.821C110.075 369.257 113.882 371.493 117.148 374.401C120.415 377.309 123.076 380.833 124.981 384.77C126.886 388.707 127.997 392.981 128.25 397.348C128.504 401.715 127.895 406.089 126.458 410.22Z" stroke="#59221D" stroke-width="5" stroke-miterlimit="10" stroke-linecap="round"/>
<path d="M49.4584 408.497L91.0714 422.968C92.3713 423.42 93.4385 424.37 94.0382 425.609C94.6378 426.848 94.7208 428.274 94.2688 429.575L92.2385 435.417L40.8227 417.537L42.8531 411.695C43.305 410.395 44.2548 409.327 45.4935 408.728C46.7323 408.128 48.1585 408.045 49.4584 408.497Z" stroke="#59221D" stroke-width="5" stroke-miterlimit="10" stroke-linecap="round"/>
<path d="M45.9737 423.48L93.8567 440.131L87.0618 459.682C86.4096 461.558 85.039 463.099 83.2514 463.964C81.4638 464.83 79.4056 464.95 77.5297 464.297L43.7929 452.566C41.917 451.913 40.377 450.542 39.5117 448.754C38.6464 446.966 38.5266 444.907 39.1788 443.031L45.9763 423.473L45.9737 423.48Z" fill="#98C8DB"/>
<path d="M42.5929 418.168L90.4759 434.82L83.6784 454.378C83.0262 456.254 81.6555 457.795 79.8679 458.66C78.0803 459.526 76.0222 459.646 74.1463 458.993L40.4095 447.261C38.5336 446.609 36.9936 445.238 36.1283 443.45C35.2629 441.662 35.1432 439.603 35.7954 437.727L42.5929 418.168Z" stroke="#59221D" stroke-width="5" stroke-miterlimit="10" stroke-linecap="round"/>
<path d="M134.118 320.143L122.514 356.609L75.9473 340.075L82.9966 317.915L134.118 320.143Z" stroke="#59221D" stroke-width="5" stroke-miterlimit="10" stroke-linecap="round"/>
<path d="M155.114 298.45L154.184 300.998L150.723 310.473L143.358 330.688C142.583 332.887 141.144 334.792 139.241 336.139C137.338 337.487 135.064 338.21 132.733 338.21H89.5469C87.7398 338.209 85.9594 337.774 84.3558 336.941C82.7521 336.107 81.3723 334.901 80.3325 333.422C79.2928 331.944 78.6236 330.237 78.3815 328.446C78.1393 326.655 78.3312 324.831 78.941 323.13L84.1821 308.448C84.7562 306.847 85.811 305.462 87.2021 304.482C88.5933 303.503 90.2528 302.978 91.9539 302.978H100.855L104.168 293.144L104.623 291.791L107.988 281.809C114.722 282.208 124.055 284.248 133.367 287.798C142.017 291.072 149.885 294.853 155.114 298.45Z" fill="#A74602"/>
<path d="M97.7418 336.729C96.0135 336.729 94.3106 336.314 92.7766 335.518C91.2426 334.721 89.9225 333.568 88.9276 332.154C87.9328 330.741 87.2924 329.108 87.0605 327.395C86.8285 325.682 87.0119 323.939 87.595 322.311L92.2293 309.403C92.7788 307.872 93.7878 306.548 95.1182 305.612C96.4486 304.677 98.0355 304.175 99.6618 304.176H131.423C132.038 304.176 132.643 304.323 133.189 304.606C133.735 304.889 134.205 305.298 134.56 305.8C134.914 306.302 135.143 306.881 135.228 307.49C135.312 308.099 135.249 308.719 135.044 309.299L130.964 321.676L134.122 321.569" stroke="#59221D" stroke-width="5" stroke-miterlimit="10" stroke-linecap="round"/>
<path d="M112.287 336.729C110.559 336.729 108.857 336.313 107.324 335.516C105.79 334.72 104.47 333.566 103.476 332.153C102.482 330.739 101.842 329.107 101.61 327.394C101.378 325.682 101.562 323.938 102.145 322.311L106.775 309.403C107.324 307.868 108.335 306.542 109.667 305.605C111 304.668 112.59 304.166 114.219 304.168" stroke="#59221D" stroke-width="5" stroke-miterlimit="10" stroke-linecap="round"/>
<path d="M128.446 337.528C120.985 337.528 114.175 329.326 116.69 322.303L121.324 309.395C121.874 307.864 122.883 306.54 124.213 305.604C125.544 304.669 127.131 304.167 128.757 304.168" stroke="#59221D" stroke-width="5" stroke-miterlimit="10" stroke-linecap="round"/>
<path d="M104.508 292.134L108.004 281.397C114.762 281.765 123.879 283.793 133.367 287.387C142.209 290.741 150.001 294.574 155.226 298.223L154.371 300.507L104.508 292.134Z" fill="#59221D"/>
<path d="M301.763 40.6222V61.7359C301.763 61.7359 282.388 68.5676 269.076 61.7359L284.1 34.4774L285.298 32.3093C285.462 32.509 291.05 39.0611 301.763 40.6222Z" fill="#A74602"/>
<path d="M285.298 32.3014C285.298 32.3014 290.886 39.0372 301.763 40.6223V55.7948L284.076 34.4455L285.298 32.3014Z" fill="#59221D"/>
<path d="M199.218 201.271L74.678 111.402C74.678 111.402 73.0334 60.4303 126.434 53.0597C151.13 49.6419 159.784 62.1313 179.487 59.2405C199.505 56.3058 191.25 25.5736 220.737 18.9137C240.46 14.4498 246.168 28.6161 260.426 21.8044C270.146 17.1649 275.662 0 293.529 0C306.797 0 308.761 10.3812 308.761 10.3812C308.761 10.3812 303.073 17.3086 285.298 17.9834V31.5108C285.298 31.5108 285.298 54.6049 265.12 63.7164C250.415 70.3523 257.783 80.9651 262.657 101.416C269.076 128.351 244.751 148.059 221.016 153.322C197.477 158.552 192.137 181.81 199.218 201.271Z" fill="#FF9F1C"/>
<path d="M287.457 17.8716C303.288 16.7696 308.613 10.5688 308.773 10.3692L314.433 24.0963C314.563 24.411 314.625 24.7494 314.615 25.0896C314.605 25.4298 314.524 25.7642 314.377 26.071C314.23 26.3779 314.02 26.6504 313.761 26.8708C313.501 27.0912 313.199 27.2546 312.872 27.3504L311.463 27.7497L312.262 32.8364C312.469 34.1725 312.229 35.5397 311.579 36.7254C310.93 37.9111 309.907 38.8487 308.669 39.3925C306.279 40.4796 303.633 40.8766 301.029 40.5385C290.156 38.9414 285.306 32.3014 285.306 32.3014H283.266C281.361 32.3014 279.533 31.5442 278.186 30.1964C276.838 28.8486 276.081 27.0205 276.081 25.1144C276.081 23.2083 276.838 21.3803 278.186 20.0325C279.533 18.6847 281.361 17.9275 283.266 17.9275L287.457 17.8716Z" fill="#A74602"/>
<path d="M282.344 21.8963C283.552 21.8963 284.71 22.3763 285.565 23.2306C286.419 24.085 286.898 25.2438 286.898 26.452" stroke="#59221D" stroke-width="5" stroke-miterlimit="10" stroke-linecap="round"/>
<path d="M299.109 19.5406C299.109 19.5406 302.031 17.3725 305.312 17.3166" stroke="#FFC200" stroke-width="4" stroke-miterlimit="10" stroke-linecap="round"/>
<path d="M303.695 24.8868C304.313 24.8868 304.813 24.0002 304.813 22.9064C304.813 21.8127 304.313 20.926 303.695 20.926C303.078 20.926 302.578 21.8127 302.578 22.9064C302.578 24.0002 303.078 24.8868 303.695 24.8868Z" fill="#59221D"/>
</svg>
