<svg width="24" height="93" viewBox="0 0 24 93" fill="none" xmlns="http://www.w3.org/2000/svg">
<circle cx="12" cy="10" r="8" stroke="#010B14" stroke-width="3"/>
<path d="M13.5 27C13.5 26.1716 12.8284 25.5 12 25.5C11.1716 25.5 10.5 26.1716 10.5 27H13.5ZM10.9393 92.0604C11.5251 92.6462 12.4749 92.6462 13.0607 92.0604L22.6066 82.5145C23.1924 81.9287 23.1924 80.979 22.6066 80.3932C22.0208 79.8074 21.0711 79.8074 20.4853 80.3932L12 88.8785L3.51472 80.3932C2.92893 79.8074 1.97919 79.8074 1.3934 80.3932C0.807611 80.979 0.807611 81.9287 1.3934 82.5145L10.9393 92.0604ZM10.5 27V30.2H13.5V27H10.5ZM10.5 36.6V42.9999H13.5V36.6H10.5ZM10.5 49.3999V55.7999H13.5V49.3999H10.5ZM10.5 62.1999V68.5999H13.5V62.1999H10.5ZM10.5 74.9998V81.3998H13.5V74.9998H10.5ZM10.5 87.7998V90.9998H13.5V87.7998H10.5Z" fill="#010B14"/>
</svg>
